<svg width="100" height="25" viewBox="0 0 100 25" fill="none" xmlns="http://www.w3.org/2000/svg">
<path d="M0.5015 24L3.6695 0.899998H6.8375L12.6455 11.757L18.3875 0.899998H21.5885L24.74 24H20.747L18.4865 6.0975L19.526 6.2955L12.6455 18.918L5.7155 6.312L6.755 6.1305L4.4945 24H0.5015ZM32.9964 24.33C31.9954 24.33 31.1209 24.1265 30.3729 23.7195C29.6249 23.3125 29.0419 22.757 28.6239 22.053C28.2169 21.349 28.0134 20.546 28.0134 19.644C28.0134 18.731 28.2114 17.95 28.6074 17.301C29.0144 16.641 29.5534 16.0965 30.2244 15.6675C30.9064 15.2275 31.6654 14.881 32.5014 14.628C33.3374 14.364 34.2009 14.177 35.0919 14.067C35.9939 13.946 36.8574 13.88 37.6824 13.869C37.6824 12.329 37.3799 11.3225 36.7749 10.8495C36.1699 10.3765 35.2954 10.14 34.1514 10.14C33.5464 10.14 32.8974 10.2335 32.2044 10.4205C31.5224 10.6075 30.7524 10.998 29.8944 11.592L29.4654 9.183C30.1144 8.688 30.9229 8.2865 31.8909 7.9785C32.8589 7.6595 33.8764 7.5 34.9434 7.5C36.3074 7.5 37.4074 7.742 38.2434 8.226C39.0794 8.699 39.6899 9.502 40.0749 10.635C40.4599 11.768 40.6524 13.308 40.6524 15.255V18.555C40.6524 19.325 40.6854 19.963 40.7514 20.469C40.8284 20.964 40.9934 21.338 41.2464 21.591C41.5104 21.833 41.9284 21.954 42.5004 21.954H42.7974L42.3354 24.33H42.1044C41.1474 24.33 40.4049 24.2365 39.8769 24.0495C39.3599 23.8625 38.9639 23.593 38.6889 23.241C38.4139 22.889 38.1664 22.46 37.9464 21.954C37.3414 22.658 36.6264 23.23 35.8014 23.67C34.9764 24.11 34.0414 24.33 32.9964 24.33ZM33.5574 21.954C34.3494 21.954 35.1139 21.756 35.8509 21.36C36.5989 20.964 37.2094 20.436 37.6824 19.776V15.915C36.1094 15.97 34.8334 16.124 33.8544 16.377C32.8864 16.63 32.1769 17.0095 31.7259 17.5155C31.2749 18.0215 31.0494 18.676 31.0494 19.479C31.0494 20.348 31.2804 20.9805 31.7424 21.3765C32.2154 21.7615 32.8204 21.954 33.5574 21.954ZM46.0799 24V7.83H48.3899L48.9839 10.932L47.8289 10.437C48.9179 9.227 49.9794 8.435 51.0134 8.061C52.0584 7.687 53.0759 7.5 54.0659 7.5C56.4309 7.5 58.1194 8.182 59.1314 9.546C60.1544 10.91 60.6659 12.758 60.6659 15.09V24H57.6959V15.09C57.6959 13.374 57.3769 12.12 56.7389 11.328C56.1009 10.536 55.0119 10.14 53.4719 10.14C52.3829 10.14 51.3819 10.382 50.4689 10.866C49.5669 11.339 48.9729 12.098 48.6869 13.143L49.0499 11.328V24H46.0799ZM72.7305 24.462C71.7845 24.462 70.822 24.3795 69.843 24.2145C68.864 24.0495 67.9565 23.846 67.1205 23.604C66.2955 23.351 65.6245 23.098 65.1075 22.845L65.586 18.786C66.29 19.127 67.06 19.457 67.896 19.776C68.732 20.084 69.6065 20.3425 70.5195 20.5515C71.4435 20.7495 72.373 20.8485 73.308 20.8485C74.562 20.8485 75.563 20.612 76.311 20.139C77.07 19.655 77.4495 18.918 77.4495 17.928C77.4495 17.169 77.246 16.553 76.839 16.08C76.432 15.607 75.816 15.1945 74.991 14.8425C74.166 14.4795 73.121 14.089 71.856 13.671C70.613 13.264 69.4855 12.7965 68.4735 12.2685C67.4615 11.7295 66.653 11.0365 66.048 10.1895C65.454 9.3425 65.157 8.248 65.157 6.906C65.157 5.652 65.4705 4.5355 66.0975 3.5565C66.7245 2.5775 67.6595 1.813 68.9025 1.263C70.1455 0.712999 71.68 0.437998 73.506 0.437998C74.958 0.437998 76.322 0.597499 77.598 0.916499C78.874 1.2355 79.9465 1.582 80.8155 1.956L80.4195 5.916C79.1435 5.278 77.9335 4.805 76.7895 4.497C75.6565 4.189 74.4905 4.035 73.2915 4.035C72.0155 4.035 71.0035 4.255 70.2555 4.695C69.5075 5.135 69.1335 5.8225 69.1335 6.7575C69.1335 7.4505 69.326 8.0115 69.711 8.4405C70.096 8.8695 70.646 9.238 71.361 9.546C72.087 9.854 72.9725 10.1675 74.0175 10.4865C75.6675 11.0035 77.0645 11.5755 78.2085 12.2025C79.3525 12.8295 80.216 13.594 80.799 14.496C81.393 15.398 81.69 16.5145 81.69 17.8455C81.69 18.6155 81.558 19.3965 81.294 20.1885C81.03 20.9695 80.5625 21.6845 79.8915 22.3335C79.2315 22.9715 78.3185 23.4885 77.1525 23.8845C75.9865 24.2695 74.5125 24.462 72.7305 24.462ZM89.4303 24.33C88.4293 24.33 87.5548 24.1265 86.8068 23.7195C86.0588 23.3125 85.4758 22.757 85.0578 22.053C84.6508 21.349 84.4473 20.546 84.4473 19.644C84.4473 18.731 84.6453 17.95 85.0413 17.301C85.4483 16.641 85.9873 16.0965 86.6583 15.6675C87.3403 15.2275 88.0993 14.881 88.9353 14.628C89.7713 14.364 90.6348 14.177 91.5258 14.067C92.4278 13.946 93.2913 13.88 94.1163 13.869C94.1163 12.329 93.8138 11.3225 93.2088 10.8495C92.6038 10.3765 91.7293 10.14 90.5853 10.14C89.9803 10.14 89.3313 10.2335 88.6383 10.4205C87.9563 10.6075 87.1863 10.998 86.3283 11.592L85.8993 9.183C86.5483 8.688 87.3568 8.2865 88.3248 7.9785C89.2928 7.6595 90.3103 7.5 91.3773 7.5C92.7413 7.5 93.8413 7.742 94.6773 8.226C95.5133 8.699 96.1238 9.502 96.5088 10.635C96.8938 11.768 97.0863 13.308 97.0863 15.255V18.555C97.0863 19.325 97.1193 19.963 97.1853 20.469C97.2623 20.964 97.4273 21.338 97.6803 21.591C97.9443 21.833 98.3623 21.954 98.9343 21.954H99.2313L98.7693 24.33H98.5383C97.5813 24.33 96.8388 24.2365 96.3108 24.0495C95.7938 23.8625 95.3978 23.593 95.1228 23.241C94.8478 22.889 94.6003 22.46 94.3803 21.954C93.7753 22.658 93.0603 23.23 92.2353 23.67C91.4103 24.11 90.4753 24.33 89.4303 24.33ZM89.9913 21.954C90.7833 21.954 91.5478 21.756 92.2848 21.36C93.0328 20.964 93.6433 20.436 94.1163 19.776V15.915C92.5433 15.97 91.2673 16.124 90.2883 16.377C89.3203 16.63 88.6108 17.0095 88.1598 17.5155C87.7088 18.0215 87.4833 18.676 87.4833 19.479C87.4833 20.348 87.7143 20.9805 88.1763 21.3765C88.6493 21.7615 89.2543 21.954 89.9913 21.954Z" fill="black"/>
</svg>
